<svg width="165" height="42" viewBox="0 0 165 42" fill="none" xmlns="http://www.w3.org/2000/svg">
<path d="M50.9375 28.7754V11.2195L65.7602 11.1703C67.7136 11.1703 69.1581 11.5807 70.0938 12.4014C71.0459 13.2057 71.5219 14.4205 71.5219 16.0455C71.5219 17.6706 70.9802 18.8607 69.8968 19.6158C70.6191 20.0098 71.1526 20.535 71.4973 21.1916C71.842 21.8318 72.0144 22.6608 72.0144 23.6785C72.0144 25.3364 71.5383 26.6004 70.5863 27.4704C69.6506 28.324 68.2061 28.7508 66.2527 28.7508L50.9375 28.7754ZM65.2924 14.322H54.8771V18.2616H65.2924C66.7862 18.2616 67.5331 17.5886 67.5331 16.2425C67.5331 14.9622 66.7862 14.322 65.2924 14.322ZM65.7849 21.4132H54.8771V25.5991H65.7849C67.2786 25.5991 68.0255 24.8932 68.0255 23.4815C68.0255 22.1027 67.2786 21.4132 65.7849 21.4132Z" fill="white"/>
<path d="M74.3491 28.7754V16.0948H77.9193V28.7754H74.3491ZM74.3244 14.0019V11.2195H77.944V14.0019H74.3244Z" fill="white"/>
<path d="M87.2238 28.7754C85.7956 28.7754 84.7451 28.4225 84.0721 27.7166C83.3991 26.9943 83.0625 26.0505 83.0625 24.885V18.9264H79.3938V16.0948H83.0625V12.2044H86.6328V16.0948H91.902V18.9264H86.6328V24.4418C86.6328 25.4431 87.1253 25.9438 88.1102 25.9438H92.5915V28.7754H87.2238Z" fill="white"/>
<path d="M94.427 28.7754V16.0948H104.128C105.556 16.0948 106.607 16.4559 107.28 17.1782C107.953 17.884 108.289 18.8197 108.289 19.9851V22.6197H104.67V20.4283C104.67 19.4434 104.178 18.951 103.193 18.951H98.0465V28.7754H94.427Z" fill="white"/>
<path d="M117.23 28.8985C115.031 28.8985 113.315 28.3568 112.084 27.2734C110.853 26.1736 110.237 24.5649 110.237 22.4474C110.237 20.3134 110.853 18.7048 112.084 17.6214C113.315 16.5216 115.031 15.9717 117.23 15.9717H121.785C123.985 15.9717 125.7 16.5216 126.931 17.6214C128.163 18.7048 128.778 20.3134 128.778 22.4474C128.778 24.5649 128.163 26.1736 126.931 27.2734C125.7 28.3568 123.985 28.8985 121.785 28.8985H117.23ZM117.23 26.0669H121.785C122.852 26.0669 123.665 25.7714 124.223 25.1805C124.797 24.5895 125.085 23.6785 125.085 22.4474C125.085 21.1999 124.797 20.2806 124.223 19.6897C123.665 19.0987 122.852 18.8033 121.785 18.8033H117.23C116.163 18.8033 115.342 19.0987 114.768 19.6897C114.21 20.2806 113.931 21.1999 113.931 22.4474C113.931 23.6785 114.21 24.5895 114.768 25.1805C115.342 25.7714 116.163 26.0669 117.23 26.0669Z" fill="white"/>
<path d="M137.5 28.8985C135.301 28.8985 133.585 28.3568 132.354 27.2734C131.123 26.1736 130.508 24.5649 130.508 22.4474C130.508 20.3134 131.123 18.7048 132.354 17.6214C133.585 16.5216 135.301 15.9717 137.5 15.9717H145.749V18.8033H137.5C136.433 18.8033 135.613 19.0987 135.038 19.6897C134.48 20.2806 134.201 21.1999 134.201 22.4474C134.201 23.6785 134.48 24.5895 135.038 25.1805C135.613 25.7714 136.433 26.0669 137.5 26.0669H145.995V28.8985H137.5Z" fill="white"/>
<path d="M147.832 28.7754V11.1703H151.402V16.0948H159.921C161.366 16.0948 162.466 16.4395 163.221 17.1289C163.992 17.8019 164.378 18.7704 164.378 20.0344C164.378 22.1027 163.393 23.3338 161.423 23.7278L164.427 28.7754H160.414L157.508 23.8755H151.402V28.7754H147.832ZM159.749 18.9018H151.402V21.0685H159.749C160.077 21.0685 160.332 20.97 160.512 20.7731C160.709 20.5761 160.808 20.3052 160.808 19.9605C160.808 19.2547 160.455 18.9018 159.749 18.9018Z" fill="white"/>
<path d="M30.6792 24.4044L39.3467 11.5918C39.4052 11.4981 39.4389 11.391 39.4445 11.2806C39.4501 11.1702 39.4274 11.0602 39.3787 10.961C39.3299 10.8618 39.2567 10.7767 39.1659 10.7138C39.0751 10.6508 38.9697 10.6121 38.8598 10.6013L21.752 8.7825L30.6792 24.4044Z" fill="#A7A7A7"/>
<path d="M38.8283 16.1708L32.7091 26.2228L39.0068 29.9902C39.0561 30.0227 39.1133 30.0411 39.1723 30.0435C39.2313 30.0459 39.2898 30.0321 39.3415 30.0038C39.3933 29.9754 39.4363 29.9334 39.466 29.8824C39.4957 29.8313 39.5109 29.7732 39.51 29.7141V16.3332C39.5207 16.2884 39.5224 16.242 39.5151 16.1965C39.5078 16.1511 39.4917 16.1075 39.4676 16.0683C39.4434 16.0291 39.4118 15.995 39.3746 15.968C39.3373 15.941 39.2951 15.9216 39.2503 15.911C39.2055 15.9003 39.1591 15.8986 39.1137 15.9059C39.0683 15.9132 39.0247 15.9293 38.9855 15.9535C38.9463 15.9776 38.9123 16.0092 38.8853 16.0465C38.8583 16.0838 38.8389 16.126 38.8283 16.1708Z" fill="white"/>
<path d="M37.9558 7.27175L21.968 0.0616367C21.8681 0.0146648 21.7578 -0.00603321 21.6477 0.00150484C21.5375 0.00904289 21.4311 0.0445665 21.3385 0.104715C21.2459 0.164863 21.1701 0.24765 21.1184 0.345248C21.0666 0.442846 21.0407 0.552029 21.0429 0.662478V6.05383L37.761 7.88884C37.8403 7.90651 37.9234 7.89379 37.9937 7.85321C38.0641 7.81263 38.1167 7.74712 38.1412 7.66963C38.1656 7.59213 38.1602 7.50828 38.1259 7.43462C38.0915 7.36096 38.0309 7.30284 37.9558 7.27175Z" fill="white"/>
<path d="M31.2687 28.4638L24.7762 40.2046C24.7052 40.3288 24.676 40.4725 24.693 40.6146C24.71 40.7566 24.7723 40.8894 24.8707 40.9933C24.969 41.0971 25.0982 41.1665 25.2391 41.1912C25.3799 41.2159 25.525 41.1945 25.6527 41.1302L38.0534 33.0107C38.1004 32.9816 38.1392 32.9409 38.166 32.8926C38.1929 32.8443 38.207 32.7899 38.207 32.7346C38.207 32.6794 38.1929 32.625 38.166 32.5767C38.1392 32.5284 38.1004 32.4877 38.0534 32.4586L31.2687 28.4638Z" fill="white"/>
<path d="M19.7272 27.538H10.7514L18.6073 41.3736C18.7249 41.565 18.8896 41.7231 19.0857 41.8328C19.2818 41.9424 19.5026 42 19.7272 42C19.9519 42 20.1727 41.9424 20.3688 41.8328C20.5648 41.7231 20.7295 41.565 20.8472 41.3736L28.7031 27.538H19.7272Z" fill="#A7A7A7"/>
<path d="M0.501572 29.9902L6.73438 26.2065L0.61519 16.1708C0.57408 16.1137 0.516328 16.0707 0.449846 16.0478C0.383364 16.0248 0.31141 16.023 0.243853 16.0426C0.176296 16.0621 0.11644 16.1021 0.072497 16.1571C0.0285536 16.212 0.00267126 16.2792 -0.00159951 16.3494L-0.00159951 29.7141C-0.00247936 29.7732 0.0127471 29.8313 0.0424361 29.8824C0.072125 29.9334 0.115156 29.9754 0.166902 30.0038C0.218648 30.0321 0.277148 30.0459 0.336116 30.0435C0.395084 30.0411 0.452288 30.0227 0.501572 29.9902Z" fill="white"/>
<path d="M8.18215 28.464L1.47864 32.4101C1.43166 32.4392 1.3929 32.4799 1.36601 32.5282C1.33913 32.5765 1.32502 32.6309 1.32502 32.6862C1.32502 32.7415 1.33913 32.7959 1.36601 32.8442C1.3929 32.8925 1.43166 32.9331 1.47864 32.9622L13.8793 41.0817C14.0071 41.146 14.1521 41.1674 14.293 41.1427C14.4339 41.1181 14.563 41.0487 14.6614 40.9448C14.7597 40.8409 14.822 40.7082 14.839 40.5661C14.856 40.424 14.8269 40.2803 14.7558 40.1561L8.2633 28.4153L8.18215 28.464Z" fill="white"/>
<path d="M1.68793 7.88884L18.4061 6.05383V0.662478C18.4083 0.552029 18.3823 0.442846 18.3306 0.345248C18.2789 0.24765 18.2031 0.164863 18.1105 0.104715C18.0179 0.0445665 17.9115 0.00904289 17.8013 0.00150484C17.6911 -0.00603321 17.5809 0.0146648 17.4809 0.0616367L1.49315 7.27175C1.4181 7.30284 1.35743 7.36096 1.32311 7.43462C1.2888 7.50828 1.28333 7.59213 1.30779 7.66963C1.33225 7.74712 1.38486 7.81263 1.45524 7.85321C1.52562 7.89379 1.60864 7.90651 1.68793 7.88884Z" fill="white"/>
<path d="M8.76812 24.4044L17.6953 8.7825L0.587565 10.6013C0.477623 10.6121 0.372268 10.6508 0.281464 10.7138C0.190661 10.7767 0.117416 10.8618 0.0686608 10.961C0.0199058 11.0602 -0.00275192 11.1702 0.00284262 11.2806C0.00843717 11.391 0.0420961 11.4981 0.100629 11.5918L8.76812 24.4044Z" fill="#A7A7A7"/>
</svg>
