<svg width="43" height="43" viewBox="0 0 43 43" fill="none" xmlns="http://www.w3.org/2000/svg">
<rect width="43" height="43" rx="14" fill="url(#paint0_linear_899_43)"/>
<path d="M29.5759 24.0105L35.9857 14.561C36.029 14.4918 36.0538 14.4128 36.058 14.3314C36.0621 14.25 36.0454 14.1689 36.0093 14.0957C35.9733 14.0226 35.9191 13.9598 35.8519 13.9134C35.7848 13.8669 35.7069 13.8384 35.6256 13.8304L22.9741 12.489L29.5759 24.0105Z" fill="url(#paint1_linear_899_43)"/>
<path d="M35.6021 17.9383L31.0768 25.3519L35.7341 28.1304C35.7706 28.1544 35.8129 28.168 35.8565 28.1697C35.9001 28.1715 35.9434 28.1614 35.9816 28.1404C36.0199 28.1195 36.0517 28.0885 36.0737 28.0509C36.0956 28.0133 36.1069 27.9704 36.1062 27.9268V18.0581C36.1141 18.0251 36.1154 17.9908 36.11 17.9573C36.1046 17.9238 36.0927 17.8916 36.0748 17.8627C36.057 17.8338 36.0336 17.8087 36.0061 17.7888C35.9785 17.7689 35.9473 17.7546 35.9142 17.7467C35.8811 17.7388 35.8467 17.7376 35.8132 17.7429C35.7796 17.7483 35.7473 17.7602 35.7184 17.778C35.6894 17.7958 35.6642 17.8191 35.6443 17.8466C35.6243 17.8741 35.61 17.9053 35.6021 17.9383Z" fill="url(#paint2_linear_899_43)"/>
<path d="M34.9533 11.3751L23.1301 6.05749C23.0562 6.02284 22.9746 6.00758 22.8932 6.01314C22.8117 6.0187 22.733 6.0449 22.6645 6.08926C22.596 6.13362 22.54 6.19467 22.5017 6.26665C22.4635 6.33864 22.4443 6.41916 22.4459 6.50062V10.4768L34.8093 11.8302C34.8679 11.8432 34.9293 11.8339 34.9814 11.8039C35.0334 11.774 35.0723 11.7257 35.0904 11.6685C35.1085 11.6114 35.1045 11.5495 35.0791 11.4952C35.0537 11.4409 35.0088 11.398 34.9533 11.3751Z" fill="url(#paint3_linear_899_43)"/>
<path d="M30.0096 27.0046L25.2083 35.6637C25.1558 35.7553 25.1342 35.8613 25.1468 35.966C25.1593 36.0708 25.2054 36.1688 25.2781 36.2454C25.3509 36.322 25.4464 36.3731 25.5506 36.3913C25.6547 36.4095 25.762 36.3937 25.8565 36.3463L35.027 30.358C35.0618 30.3366 35.0904 30.3066 35.1103 30.271C35.1302 30.2353 35.1406 30.1952 35.1406 30.1544C35.1406 30.1137 35.1302 30.0736 35.1103 30.0379C35.0904 30.0023 35.0618 29.9723 35.027 29.9508L30.0096 27.0046Z" fill="url(#paint4_linear_899_43)"/>
<path d="M21.4754 26.322H14.8376L20.6472 36.5261C20.7342 36.6672 20.856 36.7838 21.001 36.8647C21.146 36.9456 21.3093 36.988 21.4754 36.988C21.6416 36.988 21.8049 36.9456 21.9499 36.8647C22.0949 36.7838 22.2167 36.6672 22.3037 36.5261L28.1133 26.322H21.4754Z" fill="url(#paint5_linear_899_43)"/>
<path d="M7.26182 28.1304L11.8711 25.3399L7.34584 17.9383C7.31544 17.8962 7.27273 17.8645 7.22357 17.8476C7.1744 17.8307 7.12119 17.8293 7.07123 17.8438C7.02127 17.8582 6.97701 17.8877 6.94451 17.9282C6.91202 17.9687 6.89287 18.0183 6.88972 18.0701L6.88972 27.9268C6.88907 27.9704 6.90033 28.0133 6.92228 28.0509C6.94424 28.0885 6.97606 28.1195 7.01433 28.1404C7.05259 28.1614 7.09586 28.1715 7.13946 28.1697C7.18307 28.168 7.22537 28.1544 7.26182 28.1304Z" fill="url(#paint6_linear_899_43)"/>
<path d="M12.9408 27.0046L7.98344 29.915C7.9487 29.9364 7.92003 29.9664 7.90015 30.002C7.88027 30.0377 7.86984 30.0778 7.86984 30.1186C7.86984 30.1593 7.88027 30.1994 7.90015 30.2351C7.92003 30.2707 7.9487 30.3007 7.98344 30.3222L17.154 36.3105C17.2485 36.3579 17.3557 36.3736 17.4599 36.3554C17.5641 36.3372 17.6596 36.2861 17.7323 36.2095C17.805 36.1329 17.8511 36.0349 17.8637 35.9302C17.8763 35.8254 17.8547 35.7194 17.8022 35.6278L13.0008 26.9687L12.9408 27.0046Z" fill="url(#paint7_linear_899_43)"/>
<path d="M8.13649 11.8302L20.4999 10.4768V6.50062C20.5015 6.41916 20.4823 6.33864 20.4441 6.26665C20.4058 6.19467 20.3498 6.13362 20.2813 6.08926C20.2128 6.0449 20.1341 6.0187 20.0526 6.01314C19.9712 6.00758 19.8896 6.02284 19.8157 6.05749L7.99245 11.3751C7.93695 11.398 7.89208 11.4409 7.86671 11.4952C7.84133 11.5495 7.83728 11.6114 7.85537 11.6685C7.87346 11.7257 7.91237 11.774 7.96442 11.8039C8.01646 11.8339 8.07786 11.8432 8.13649 11.8302Z" fill="url(#paint8_linear_899_43)"/>
<path d="M13.3708 24.0105L19.9727 12.489L7.32116 13.8304C7.23986 13.8384 7.16194 13.8669 7.09479 13.9134C7.02764 13.9598 6.97348 14.0226 6.93742 14.0957C6.90137 14.1689 6.88461 14.25 6.88875 14.3314C6.89288 14.4128 6.91778 14.4918 6.96106 14.561L13.3708 24.0105Z" fill="url(#paint9_linear_899_43)"/>
<defs>
<linearGradient id="paint0_linear_899_43" x1="43" y1="4.35972" x2="-1.25417" y2="45.5282" gradientUnits="userSpaceOnUse">
<stop/>
<stop offset="0.244821"/>
<stop offset="0.965954" stop-color="#4232A5"/>
<stop offset="1"/>
</linearGradient>
<linearGradient id="paint1_linear_899_43" x1="29.5163" y1="24.0105" x2="29.5163" y2="12.489" gradientUnits="userSpaceOnUse">
<stop stop-color="#54ADFF"/>
<stop offset="1" stop-color="#5440D0"/>
</linearGradient>
<linearGradient id="paint2_linear_899_43" x1="33.5951" y1="28.1699" x2="33.5951" y2="17.7397" gradientUnits="userSpaceOnUse">
<stop stop-color="#54ADFF"/>
<stop offset="1" stop-color="#28A925"/>
</linearGradient>
<linearGradient id="paint3_linear_899_43" x1="28.7737" y1="11.8359" x2="28.7737" y2="6.01202" gradientUnits="userSpaceOnUse">
<stop stop-color="#54ADFF"/>
<stop offset="1" stop-color="#28A925"/>
</linearGradient>
<linearGradient id="paint4_linear_899_43" x1="30.1419" y1="36.3987" x2="30.1419" y2="27.0046" gradientUnits="userSpaceOnUse">
<stop stop-color="#54ADFF"/>
<stop offset="1" stop-color="#28A925"/>
</linearGradient>
<linearGradient id="paint5_linear_899_43" x1="21.4754" y1="36.988" x2="21.4754" y2="26.322" gradientUnits="userSpaceOnUse">
<stop stop-color="#54ADFF"/>
<stop offset="1" stop-color="#5440D0"/>
</linearGradient>
<linearGradient id="paint6_linear_899_43" x1="9.38039" y1="28.1699" x2="9.38039" y2="17.8338" gradientUnits="userSpaceOnUse">
<stop stop-color="#54ADFF"/>
<stop offset="1" stop-color="#28A925"/>
</linearGradient>
<linearGradient id="paint7_linear_899_43" x1="12.8685" y1="36.3628" x2="12.8685" y2="26.9687" gradientUnits="userSpaceOnUse">
<stop stop-color="#54ADFF"/>
<stop offset="1" stop-color="#28A925"/>
</linearGradient>
<linearGradient id="paint8_linear_899_43" x1="14.1721" y1="11.8359" x2="14.1721" y2="6.01202" gradientUnits="userSpaceOnUse">
<stop stop-color="#54ADFF"/>
<stop offset="1" stop-color="#28A925"/>
</linearGradient>
<linearGradient id="paint9_linear_899_43" x1="13.4304" y1="24.0105" x2="13.4304" y2="12.489" gradientUnits="userSpaceOnUse">
<stop stop-color="#54ADFF"/>
<stop offset="1" stop-color="#5440D0"/>
</linearGradient>
</defs>
</svg>
